# xmcd
#
# Track frame offsets:
#	150
#	15967
#	31296
#	47036
#	63090
#	82539
#	98363
#	111780
#	126360
#	141501
#	157421
#	171438
#	191384
#	210563
#	225738
#	241513
#	260091
#	272703
#	286126
#	303325
#	319370
#	333259
#
# Disc length: 4594 seconds
#
# Revision: 0
# Processed by: cddbd v1.5.1PL0 Copyright (c) Steve Scherf et al.
# Submitted via: audiograbber 1.83.01
#
DISCID=2a11f016
DTITLE=Various Artist - ERG NCT 135
DYEAR=2005
DGENRE=country
TTITLE0=Gretchen Wilson - All Jacked Up
TTITLE1=Alan Jackson - USA Today
TTITLE2=Gord Bamford - All About Her
TTITLE3=Darryl Worley - I Love Her, She Hates Me
TTITLE4=Rascal Flatts - Skin (Sarabeth)
TTITLE5=Gil Grand - These Wheels Won't Roll
TTITLE6=Buddy Jewel - So Gone
TTITLE7=Martina McBride - (I Never Promised You A) Rose Garden
TTITLE8=Terry Clark - She Didn't Have Time
TTITLE9=Josh Turner - Your Man
TTITLE10=George Canyon - Who Would You Be
TTITLE11=Chely Wright - The River
TTITLE12=Kevin Fowler - Don't Touch My Willie
TTITLE13=Patty Loveless - Keep Your Distance
TTITLE14=Paul Brandt - Rich Man
TTITLE15=Greencards, The - Time
TTITLE16=Amber Dotson - I Ain't Your Mama
TTITLE17=Wayne Warner - 10,000 Tears Ago
TTITLE18=Duane Steele - Sad Country Song
TTITLE19=Bobby Pinson - One More Believer
TTITLE20=Joe Nichols - Tequila Make Her Clothes Fall Off
TTITLE21=Willie Nelson ft. Toots Hibbert - I'm A Worried Man
EXTD=
EXTT0=
EXTT1=
EXTT2=
EXTT3=
EXTT4=
EXTT5=
EXTT6=
EXTT7=
EXTT8=
EXTT9=
EXTT10=
EXTT11=
EXTT12=
EXTT13=
EXTT14=
EXTT15=
EXTT16=
EXTT17=
EXTT18=
EXTT19=
EXTT20=
EXTT21=
PLAYORDER=
